{
  "accessors": [
    {
      "bufferView": 2,
      "componentType": 5126,
      "count": 125,
      "max": [
        1.6700459718704224,
        1.6700459718704224,
        1.6731640100479126
      ],
      "min": [
        -1.6700459718704224,
        -1.6700459718704224,
        -3.8507280349731445
      ],
      "type": "VEC3"
    },
    {
      "bufferView": 2,
      "byteOffset": 1500,
      "componentType": 5126,
      "count": 125,
      "max": [
        0.9998878240585327,
        0.9998878240585327,
        0.3256731629371643
      ],
      "min": [
        -0.9998878240585327,
        -0.9998878240585327,
        -0.44844678044319153
      ],
      "type": "VEC3"
    },
    {
      "bufferView": 1,
      "componentType": 5126,
      "count": 125,
      "max": [
        0.8827011585235596,
        0.9657725691795349
      ],
      "min": [
        0.1173628568649292,
        0.0342274010181427
      ],
      "type": "VEC2"
    },
    {
      "bufferView": 0,
      "componentType": 5125,
      "count": 576,
      "type": "SCALAR"
    },
    {
      "bufferView": 2,
      "byteOffset": 3000,
      "componentType": 5126,
      "count": 1804,
      "max": [
        1.6339759826660156,
        1.6339759826660156,
        2.123565912246704
      ],
      "min": [
        -1.6339759826660156,
        -1.6339759826660156,
        -4.349733829498291
      ],
      "type": "VEC3"
    },
    {
      "bufferView": 2,
      "byteOffset": 24648,
      "componentType": 5126,
      "count": 1804,
      "max": [
        0.9980544447898865,
        1.0,
        1.0
      ],
      "min": [
        -0.9952377080917358,
        -1.0,
        -1.0
      ],
      "type": "VEC3"
    },
    {
      "bufferView": 1,
      "byteOffset": 1000,
      "componentType": 5126,
      "count": 1804,
      "max": [
        1.0,
        1.0
      ],
      "min": [
        0.0,
        0.0
      ],
      "type": "VEC2"
    },
    {
      "bufferView": 0,
      "byteOffset": 2304,
      "componentType": 5125,
      "count": 8832,
      "type": "SCALAR"
    }
  ],
  "asset": {
    "extras": {
      "author": "liamandnico (https://sketchfab.com/liamandnico)",
      "license": "CC-BY-4.0 (http://creativecommons.org/licenses/by/4.0/)",
      "source": "https://sketchfab.com/3d-models/peapsi-can-veggie-tales-2ecc060e9a3c4615971a07aa4ead359a",
      "title": "Peapsi Can (Veggie Tales)"
    },
    "generator": "Sketchfab-10.46.0",
    "version": "2.0"
  },
  "bufferViews": [
    {
      "buffer": 0,
      "byteLength": 37632,
      "name": "floatBufferViews",
      "target": 34963
    },
    {
      "buffer": 0,
      "byteLength": 15432,
      "byteOffset": 37632,
      "byteStride": 8,
      "name": "floatBufferViews",
      "target": 34962
    },
    {
      "buffer": 0,
      "byteLength": 46296,
      "byteOffset": 53064,
      "byteStride": 12,
      "name": "floatBufferViews",
      "target": 34962
    }
  ],
  "buffers": [
    {
      "byteLength": 99360,
      "uri": "scene.bin"
    }
  ],
  "images": [
    {
      "uri": "textures/Material.001_baseColor.png"
    }
  ],
  "materials": [
    {
      "doubleSided": true,
      "name": "Material.001",
      "pbrMetallicRoughness": {
        "baseColorTexture": {
          "index": 0
        },
        "roughnessFactor": 0.0
      }
    },
    {
      "doubleSided": true,
      "name": "Material.002",
      "pbrMetallicRoughness": {
        "roughnessFactor": 0.0
      }
    }
  ],
  "meshes": [
    {
      "name": "Object_0",
      "primitives": [
        {
          "attributes": {
            "NORMAL": 1,
            "POSITION": 0,
            "TEXCOORD_0": 2
          },
          "indices": 3,
          "material": 0,
          "mode": 4
        }
      ]
    },
    {
      "name": "Object_1",
      "primitives": [
        {
          "attributes": {
            "NORMAL": 5,
            "POSITION": 4,
            "TEXCOORD_0": 6
          },
          "indices": 7,
          "material": 1,
          "mode": 4
        }
      ]
    }
  ],
  "nodes": [
    {
      "children": [
        1
      ],
      "matrix": [
        1.0,
        0.0,
        0.0,
        0.0,
        0.0,
        2.220446049250313e-16,
        -1.0,
        0.0,
        0.0,
        1.0,
        2.220446049250313e-16,
        0.0,
        0.0,
        0.0,
        0.0,
        1.0
      ],
      "name": "Sketchfab_model"
    },
    {
      "children": [
        2
      ],
      "name": "root"
    },
    {
      "children": [
        3
      ],
      "matrix": [
        1.0,
        0.0,
        0.0,
        0.0,
        0.0,
        2.220446049250313e-16,
        1.0,
        0.0,
        0.0,
        -1.0,
        2.220446049250313e-16,
        0.0,
        0.0,
        0.0,
        0.0,
        1.0
      ],
      "name": "GLTF_SceneRootNode"
    },
    {
      "children": [
        4,
        5
      ],
      "matrix": [
        0.40663576126098633,
        0.0,
        0.0,
        0.0,
        0.0,
        -6.855366449024268e-08,
        0.40663576126098055,
        0.0,
        0.0,
        -0.40663576126098055,
        -6.855366449024268e-08,
        0.0,
        0.0,
        0.0,
        0.0,
        1.0
      ],
      "name": "Soda Can 2_1"
    },
    {
      "mesh": 0,
      "name": "Object_4"
    },
    {
      "mesh": 1,
      "name": "Object_5"
    }
  ],
  "samplers": [
    {
      "magFilter": 9729,
      "minFilter": 9987,
      "wrapS": 10497,
      "wrapT": 10497
    }
  ],
  "scene": 0,
  "scenes": [
    {
      "name": "Sketchfab_Scene",
      "nodes": [
        0
      ]
    }
  ],
  "textures": [
    {
      "sampler": 0,
      "source": 0
    }
  ]
}
